#Comment line ignore any data following # character 
#Hierarchical Translation and Rotation (.htr) file 
[Header]	
#Header keywords are followed by a single value 
FileType HTR		#Single word string
DataType HTRS		#Translation followed by rotation and scale data
FileVersion 1		#integer
NumSegments 84		#integer
NumFrames 2		#integer
DataFrameRate 30		#integer, data frame rate in this file
EulerRotationOrder ZYX
CalibrationUnits mm
RotationUnits Degrees
GlobalAxisofGravity Y
BoneLengthAxis Y
ScaleFactor 1.00
[SegmentNames&Hierarchy]
#CHILD	PARENT
MASTER GLOBAL
root MASTER
chest root
L_mid_tent01 root
R_mid_tent01 root
spine01 root
Bip01_Neck chest
L_humerus chest
R_humerus chest
weapon_bone chest
Bip01_Head Bip01_Neck
eye_left_bone Bip01_Head
eye_right_bone Bip01_Head
L_forearm L_humerus
L_front_hand L_forearm
L_weapon_bone L_forearm
L_front_hand01_01 L_front_hand
L_front_hand02_01 L_front_hand
L_front_hand03_01 L_front_hand
L_front_hand01_02 L_front_hand01_01
L_front_hand02_02 L_front_hand02_01
L_front_hand03_02 L_front_hand03_01
R_forearm R_humerus
R_front_hand R_forearm
R_weapon_bone R_forearm
R_front_hand01_01 R_front_hand
R_front_hand02_01 R_front_hand
R_front_hand03_01 R_front_hand
R_front_hand01_02 R_front_hand01_01
R_front_hand02_02 R_front_hand02_01
R_front_hand03_02 R_front_hand03_01
null_rope01_connect L_mid_tent01
Rope1_Seg01 null_rope01_connect
Rope1_Seg02 Rope1_Seg01
Rope1_Seg03 Rope1_Seg02
Rope1_Seg04 Rope1_Seg03
Rope1_Seg05 Rope1_Seg04
Rope1_Seg06 Rope1_Seg05
Rope1_Seg07 Rope1_Seg06
Rope1_Seg09 Rope1_Seg07
L_mid_hand01 Rope1_Seg09
L_mid_hand02 Rope1_Seg09
L_mid_hand03 Rope1_Seg09
null_rope02_connect R_mid_tent01
Rope2_Seg01 null_rope02_connect
Rope2_Seg02 Rope2_Seg01
Rope2_Seg03 Rope2_Seg02
Rope2_Seg04 Rope2_Seg03
Rope2_Seg05 Rope2_Seg04
Rope2_Seg06 Rope2_Seg05
Rope2_Seg07 Rope2_Seg06
Rope2_Seg09 Rope2_Seg07
R_mid_hand01 Rope2_Seg09
R_mid_hand02 Rope2_Seg09
R_mid_hand03 Rope2_Seg09
spine02 spine01
spine03 spine02
pelvis spine03
null_rope03_connect pelvis
null_rope04_connect pelvis
Rope3_Seg01 null_rope03_connect
Rope3_Seg02 Rope3_Seg01
Rope3_Seg03 Rope3_Seg02
Rope3_Seg04 Rope3_Seg03
Rope3_Seg05 Rope3_Seg04
Rope3_Seg06 Rope3_Seg05
Rope3_Seg07 Rope3_Seg06
Rope3_Seg08 Rope3_Seg07
Rope3_Seg09 Rope3_Seg08
R_rear_hand01 Rope3_Seg09
R_rear_hand02 Rope3_Seg09
R_rear_hand03 Rope3_Seg09
Rope4_Seg01 null_rope04_connect
Rope4_Seg02 Rope4_Seg01
Rope4_Seg03 Rope4_Seg02
Rope4_Seg04 Rope4_Seg03
Rope4_Seg05 Rope4_Seg04
Rope4_Seg06 Rope4_Seg05
Rope4_Seg07 Rope4_Seg06
Rope4_Seg08 Rope4_Seg07
Rope4_Seg09 Rope4_Seg08
L_rear_hand01 Rope4_Seg09
L_rear_hand02 Rope4_Seg09
L_rear_hand03 Rope4_Seg09
[BasePosition]
#SegmentName Tx, Ty, Tz, Rx, Ry, Rz, BoneLength
MASTER 0.000000 0.000000 0.000000 -90.000000 0.000000 0.000000 10.000000 
root 0.000000 0.000000 0.000000 0.000000 0.000000 0.000000 10.000000 
chest 0.000000 0.000000 0.000000 0.000000 0.000000 0.000000 10.000000 
L_mid_tent01 0.000000 0.000000 0.000000 0.000000 0.000000 0.000000 10.000000 
R_mid_tent01 0.000000 0.000000 0.000000 0.000000 0.000000 0.000000 10.000000 
spine01 0.000000 0.000000 0.000000 0.000000 0.000000 0.000000 10.000000 
Bip01_Neck 0.000000 0.000000 0.000000 0.000000 0.000000 0.000000 10.000000 
L_humerus 0.000000 0.000000 0.000000 0.000000 0.000000 0.000000 10.000000 
R_humerus 0.000000 0.000000 0.000000 0.000000 0.000000 0.000000 10.000000 
weapon_bone 0.000000 0.000000 0.000000 0.000000 0.000000 0.000000 10.000000 
Bip01_Head 0.000000 0.000000 0.000000 0.000000 0.000000 0.000000 10.000000 
eye_left_bone 0.000000 0.000000 0.000000 0.000000 0.000000 0.000000 10.000000 
eye_right_bone 0.000000 0.000000 0.000000 0.000000 0.000000 0.000000 10.000000 
L_forearm 0.000000 0.000000 0.000000 0.000000 0.000000 0.000000 10.000000 
L_front_hand 0.000000 0.000000 0.000000 0.000000 0.000000 0.000000 10.000000 
L_weapon_bone 0.000000 0.000000 0.000000 0.000000 0.000000 0.000000 10.000000 
L_front_hand01_01 0.000000 0.000000 0.000000 0.000000 0.000000 0.000000 10.000000 
L_front_hand02_01 0.000000 0.000000 0.000000 0.000000 0.000000 0.000000 10.000000 
L_front_hand03_01 0.000000 0.000000 0.000000 0.000000 0.000000 0.000000 10.000000 
L_front_hand01_02 0.000000 0.000000 0.000000 0.000000 0.000000 0.000000 10.000000 
L_front_hand02_02 0.000000 0.000000 0.000000 0.000000 0.000000 0.000000 10.000000 
L_front_hand03_02 0.000000 0.000000 0.000000 0.000000 0.000000 0.000000 10.000000 
R_forearm 0.000000 0.000000 0.000000 0.000000 0.000000 0.000000 10.000000 
R_front_hand 0.000000 0.000000 0.000000 0.000000 0.000000 0.000000 10.000000 
R_weapon_bone 0.000000 0.000000 0.000000 0.000000 0.000000 0.000000 10.000000 
R_front_hand01_01 0.000000 0.000000 0.000000 0.000000 0.000000 0.000000 10.000000 
R_front_hand02_01 0.000000 0.000000 0.000000 0.000000 0.000000 0.000000 10.000000 
R_front_hand03_01 0.000000 0.000000 0.000000 0.000000 0.000000 0.000000 10.000000 
R_front_hand01_02 0.000000 0.000000 0.000000 0.000000 0.000000 0.000000 10.000000 
R_front_hand02_02 0.000000 0.000000 0.000000 0.000000 0.000000 0.000000 10.000000 
R_front_hand03_02 0.000000 0.000000 0.000000 0.000000 0.000000 0.000000 10.000000 
null_rope01_connect 0.000000 0.000000 0.000000 0.000000 0.000000 0.000000 10.000000 
Rope1_Seg01 0.000000 0.000000 0.000000 0.000000 0.000000 0.000000 10.000000 
Rope1_Seg02 0.000000 0.000000 0.000000 0.000000 0.000000 0.000000 10.000000 
Rope1_Seg03 0.000000 0.000000 0.000000 0.000000 0.000000 0.000000 10.000000 
Rope1_Seg04 0.000000 0.000000 0.000000 0.000000 0.000000 0.000000 10.000000 
Rope1_Seg05 0.000000 0.000000 0.000000 0.000000 0.000000 0.000000 10.000000 
Rope1_Seg06 0.000000 0.000000 0.000000 0.000000 0.000000 0.000000 10.000000 
Rope1_Seg07 0.000000 0.000000 0.000000 0.000000 0.000000 0.000000 10.000000 
Rope1_Seg09 0.000000 0.000000 0.000000 0.000000 0.000000 0.000000 10.000000 
L_mid_hand01 0.000000 0.000000 0.000000 0.000000 0.000000 0.000000 10.000000 
L_mid_hand02 0.000000 0.000000 0.000000 0.000000 0.000000 0.000000 10.000000 
L_mid_hand03 0.000000 0.000000 0.000000 0.000000 0.000000 0.000000 10.000000 
null_rope02_connect 0.000000 0.000000 0.000000 0.000000 0.000000 0.000000 10.000000 
Rope2_Seg01 0.000000 0.000000 0.000000 0.000000 0.000000 0.000000 10.000000 
Rope2_Seg02 0.000000 0.000000 0.000000 0.000000 0.000000 0.000000 10.000000 
Rope2_Seg03 0.000000 0.000000 0.000000 0.000000 0.000000 0.000000 10.000000 
Rope2_Seg04 0.000000 0.000000 0.000000 0.000000 0.000000 0.000000 10.000000 
Rope2_Seg05 0.000000 0.000000 0.000000 0.000000 0.000000 0.000000 10.000000 
Rope2_Seg06 0.000000 0.000000 0.000000 0.000000 0.000000 0.000000 10.000000 
Rope2_Seg07 0.000000 0.000000 0.000000 0.000000 0.000000 0.000000 10.000000 
Rope2_Seg09 0.000000 0.000000 0.000000 0.000000 0.000000 0.000000 10.000000 
R_mid_hand01 0.000000 0.000000 0.000000 0.000000 0.000000 0.000000 10.000000 
R_mid_hand02 0.000000 0.000000 0.000000 0.000000 0.000000 0.000000 10.000000 
R_mid_hand03 0.000000 0.000000 0.000000 0.000000 0.000000 0.000000 10.000000 
spine02 0.000000 0.000000 0.000000 0.000000 0.000000 0.000000 10.000000 
spine03 0.000000 0.000000 0.000000 0.000000 0.000000 0.000000 10.000000 
pelvis 0.000000 0.000000 0.000000 0.000000 0.000000 0.000000 10.000000 
null_rope03_connect 0.000000 0.000000 0.000000 0.000000 0.000000 0.000000 10.000000 
null_rope04_connect 0.000000 0.000000 0.000000 0.000000 0.000000 0.000000 10.000000 
Rope3_Seg01 0.000000 0.000000 0.000000 0.000000 0.000000 0.000000 10.000000 
Rope3_Seg02 0.000000 0.000000 0.000000 0.000000 0.000000 0.000000 10.000000 
Rope3_Seg03 0.000000 0.000000 0.000000 0.000000 0.000000 0.000000 10.000000 
Rope3_Seg04 0.000000 0.000000 0.000000 0.000000 0.000000 0.000000 10.000000 
Rope3_Seg05 0.000000 0.000000 0.000000 0.000000 0.000000 0.000000 10.000000 
Rope3_Seg06 0.000000 0.000000 0.000000 0.000000 0.000000 0.000000 10.000000 
Rope3_Seg07 0.000000 0.000000 0.000000 0.000000 0.000000 0.000000 10.000000 
Rope3_Seg08 0.000000 0.000000 0.000000 0.000000 0.000000 0.000000 10.000000 
Rope3_Seg09 0.000000 0.000000 0.000000 0.000000 0.000000 0.000000 10.000000 
R_rear_hand01 0.000000 0.000000 0.000000 0.000000 0.000000 0.000000 10.000000 
R_rear_hand02 0.000000 0.000000 0.000000 0.000000 0.000000 0.000000 10.000000 
R_rear_hand03 0.000000 0.000000 0.000000 0.000000 0.000000 0.000000 10.000000 
Rope4_Seg01 0.000000 0.000000 0.000000 0.000000 0.000000 0.000000 10.000000 
Rope4_Seg02 0.000000 0.000000 0.000000 0.000000 0.000000 0.000000 10.000000 
Rope4_Seg03 0.000000 0.000000 0.000000 0.000000 0.000000 0.000000 10.000000 
Rope4_Seg04 0.000000 0.000000 0.000000 0.000000 0.000000 0.000000 10.000000 
Rope4_Seg05 0.000000 0.000000 0.000000 0.000000 0.000000 0.000000 10.000000 
Rope4_Seg06 0.000000 0.000000 0.000000 0.000000 0.000000 0.000000 10.000000 
Rope4_Seg07 0.000000 0.000000 0.000000 0.000000 0.000000 0.000000 10.000000 
Rope4_Seg08 0.000000 0.000000 0.000000 0.000000 0.000000 0.000000 10.000000 
Rope4_Seg09 0.000000 0.000000 0.000000 0.000000 0.000000 0.000000 10.000000 
L_rear_hand01 0.000000 0.000000 0.000000 0.000000 0.000000 0.000000 10.000000 
L_rear_hand02 0.000000 0.000000 0.000000 0.000000 0.000000 0.000000 10.000000 
L_rear_hand03 0.000000 0.000000 0.000000 0.000000 0.000000 0.000000 10.000000 
#Beginning of Data. Separated by tabs
#Fr	Tx	Ty	Tz	Rx	Ry	Rz	SF
[MASTER]
21 -2391.125244 -0.000361 0.000000 0.001660 0.001660 0.001660 2391.125244
22 -2496.926270 -0.000377 0.000000 0.001660 0.001660 0.001660 2496.926270
[root]
21 -16.502380 -62.822109 1435.667847 -139.977127 -27.674473 -100.091232 1437.136475
22 -16.502380 -62.822109 1456.956177 -123.610146 -27.678263 -102.390022 1458.403320
[chest]
21 -84.512650 -34.090519 0.000000 -71.463280 8.165611 -173.744003 91.129311
22 -84.512650 -34.090519 0.000000 -58.199688 6.481342 -174.433014 91.129311
[L_mid_tent01]
21 27.368307 22.138147 -250.359833 -23.084145 19.004313 37.514164 252.822403
22 27.345371 22.151318 -250.212433 -16.314634 26.646465 50.285763 252.675110
[R_mid_tent01]
21 23.228794 24.509907 226.238495 -144.118195 -19.341230 22.332069 228.744751
22 23.228794 24.509907 226.238495 -155.848129 -33.680386 37.779537 228.744751
[spine01]
21 -0.361383 -0.195265 0.000000 28.914154 0.202631 4.115204 0.410763
22 -0.361383 -0.195265 0.000000 19.533400 -0.034852 8.031775 0.410763
[Bip01_Neck]
21 165.484543 71.581718 0.000119 175.896118 1.177290 24.871183 180.302734
22 165.484543 71.581718 0.000119 175.896118 1.177290 24.871183 180.302734
[L_humerus]
21 -13.983130 -135.272980 -120.471481 170.940796 81.564224 -99.189163 181.680161
22 -13.983130 -135.272980 -120.471481 170.940796 81.564224 -99.189163 181.680161
[R_humerus]
21 -13.983309 -135.273102 125.287651 -159.666046 -68.957870 -101.166077 184.909012
22 -13.983309 -135.273102 125.287651 -159.666046 -68.957870 -101.166077 184.909012
[weapon_bone]
21 235.964890 -300.705902 0.000000 0.000000 -89.951546 -128.212341 382.234833
22 235.964890 -300.705902 0.000000 0.000000 -89.951546 -128.212341 382.234833
[Bip01_Head]
21 261.355865 108.959595 -2.864109 2.248029 5.843377 -62.458344 283.173615
22 261.355865 108.959602 -2.864102 2.248029 5.843375 -62.458332 283.173615
[eye_left_bone]
21 -24.626970 125.451866 -64.772606 0.000000 -90.000000 -99.840431 143.318359
22 -24.626970 125.451866 -64.772606 0.000000 -90.000000 -99.840431 143.318359
[eye_right_bone]
21 -24.626970 125.451866 64.327362 0.000000 -89.960434 80.159386 143.117676
22 -24.626970 125.451866 64.327362 0.000000 -89.960434 80.159386 143.117676
[L_forearm]
21 322.776093 0.000000 -0.000119 0.000471 0.002300 -66.859383 322.776093
22 322.776093 0.000000 -0.000119 0.000471 0.002300 -66.859398 322.776093
[L_front_hand]
21 241.149185 -0.042021 -3.300071 -178.667953 -1.835447 -27.422342 241.171753
22 241.149185 -0.042021 -3.300071 -178.667953 -1.835447 -27.422350 241.171753
[L_weapon_bone]
21 156.183838 0.000000 0.000000 0.001660 0.001660 0.001660 156.183838
22 156.183838 0.000000 0.000000 0.001660 0.001660 0.001660 156.183838
[L_front_hand01_01]
21 86.095154 20.947098 -0.655860 0.045167 -0.597612 33.319950 88.609184
22 86.095154 20.947098 -0.655860 0.002744 -0.598747 37.445904 88.609184
[L_front_hand02_01]
21 86.935165 -11.437475 24.513514 121.427963 -29.798750 -17.238909 91.046425
22 86.935165 -11.437475 24.513514 122.775948 -33.294907 -19.813314 91.046425
[L_front_hand03_01]
21 86.637497 -14.123976 -20.424902 -122.619110 28.348423 -19.574911 90.126129
22 86.637497 -14.123976 -20.424902 -123.929443 31.799667 -22.190067 90.126129
[L_front_hand01_02]
21 71.020905 -0.000179 0.000030 0.000569 0.002277 -61.966709 71.020905
22 71.020905 -0.000179 0.000030 0.000478 0.002298 -66.516052 71.020905
[L_front_hand02_02]
21 71.020927 -0.000119 0.000060 0.000569 0.002277 -61.966709 71.020927
22 71.020927 -0.000119 0.000060 0.000478 0.002298 -66.516052 71.020927
[L_front_hand03_02]
21 71.020905 -0.000060 0.000060 0.000569 0.002277 -61.966709 71.020905
22 71.020905 -0.000060 0.000060 0.000478 0.002298 -66.516052 71.020905
[R_forearm]
21 322.776428 -0.000060 0.000030 0.199694 -0.075621 -69.903069 322.776428
22 322.776428 -0.000060 0.000030 0.199694 -0.075621 -69.903069 322.776428
[R_front_hand]
21 238.847015 -0.006795 2.210259 -1.531694 0.790216 -51.443054 238.857239
22 238.847015 -0.006795 2.210259 -1.531694 0.790216 -51.443054 238.857239
[R_weapon_bone]
21 155.664093 0.002503 -0.000030 0.003487 0.001180 -90.988930 155.664078
22 155.664093 0.002503 -0.000030 0.003487 0.001180 -90.988930 155.664078
[R_front_hand01_01]
21 87.624611 14.231146 22.918642 -121.475159 -29.924141 17.436392 91.683487
22 87.624611 14.231146 22.918642 -122.830460 -33.418301 20.016569 91.683487
[R_front_hand02_01]
21 89.356956 14.367283 -19.491137 122.769302 28.731085 20.101265 92.579636
22 89.356956 14.367283 -19.491137 124.106987 32.175575 22.738485 92.579636
[R_front_hand03_01]
21 87.286232 -22.307278 -0.143439 -0.164033 -0.425185 -33.701946 90.091743
22 87.286232 -22.307278 -0.143439 -0.134609 -0.434106 -37.827873 90.091743
[R_front_hand01_02]
21 71.020905 0.000060 0.000119 0.002277 0.000569 61.964821 71.020905
22 71.020905 0.000060 0.000119 0.002298 0.000478 66.520027 71.020905
[R_front_hand02_02]
21 71.020844 -0.000030 -0.000119 0.002277 0.000569 61.964821 71.020836
22 71.020844 -0.000030 -0.000119 0.002298 0.000478 66.520027 71.020836
[R_front_hand03_02]
21 71.020905 0.000000 0.000030 0.002277 0.000569 61.964821 71.020905
22 71.020905 0.000000 0.000030 0.002298 0.000478 66.520027 71.020905
[null_rope01_connect]
21 328.732483 0.000000 -0.000238 -151.128769 -5.669368 -140.375793 328.732483
22 328.732483 0.000000 -0.000238 -144.358765 -18.708275 -157.868073 328.732483
[Rope1_Seg01]
21 0.000000 0.000000 0.000000 117.153526 21.829693 155.880936 0.000000
22 0.000000 0.000000 0.000000 118.364861 41.518578 148.114578 0.000000
[Rope1_Seg02]
21 139.999863 -0.000179 0.000000 -7.626327 -36.784798 18.499287 139.999863
22 139.999863 -0.000179 0.000000 -8.771724 -31.154535 28.171021 139.999863
[Rope1_Seg03]
21 139.999924 0.000060 -0.000060 -5.044088 -14.784069 6.914435 139.999924
22 139.999924 0.000060 -0.000060 -2.363349 -9.545851 6.585974 139.999924
[Rope1_Seg04]
21 139.999924 -0.000060 -0.000119 -8.681127 -12.909376 1.355033 139.999924
22 139.999924 -0.000060 -0.000119 -9.794816 -15.225404 3.928162 139.999924
[Rope1_Seg05]
21 139.999832 0.000119 -0.000060 -16.125422 -15.135671 -1.999242 139.999832
22 139.999832 0.000119 -0.000060 -14.320368 -13.366276 1.010908 139.999832
[Rope1_Seg06]
21 139.999954 0.000119 -0.000060 -12.724239 -8.877164 -3.474750 139.999954
22 139.999954 0.000119 -0.000060 -11.817298 -7.780824 -1.105565 139.999954
[Rope1_Seg07]
21 139.999985 0.000060 0.000000 -9.239480 -5.294001 -3.589435 139.999985
22 139.999985 0.000060 0.000000 -9.491749 -4.948932 -1.802754 139.999985
[Rope1_Seg09]
21 121.602913 0.000119 -0.000089 -89.793175 -1.359789 0.847147 121.602913
22 121.602913 0.000119 -0.000089 -89.793175 -1.359789 0.847147 121.602913
[L_mid_hand01]
21 103.859421 1.038730 8.195221 105.318970 -20.241947 -5.944750 104.187431
22 103.859421 1.038730 8.195221 105.476997 -21.698414 -6.376460 104.187431
[L_mid_hand02]
21 105.572853 -4.139662 -10.864139 -138.730484 18.460613 -19.249084 106.211075
22 105.572853 -4.139662 -10.864139 -139.121078 19.457188 -20.452526 106.211075
[L_mid_hand03]
21 104.641464 17.579376 -3.913581 -17.677298 6.395949 23.170801 106.179977
22 104.641464 17.579376 -3.913581 -17.511391 6.856476 24.618546 106.179977
[null_rope02_connect]
21 328.732849 0.000179 -0.000119 54.444897 73.674484 146.909714 328.732849
22 328.732849 0.000179 -0.000119 127.702438 87.601509 -122.296837 328.732849
[Rope2_Seg01]
21 -0.000046 0.000134 0.000153 88.376236 39.203785 -150.671616 0.000208
22 -0.000044 0.000134 0.000153 91.177170 53.551113 -147.584549 0.000208
[Rope2_Seg02]
21 139.999741 -0.000060 -0.000119 -0.423439 -13.168160 -6.938695 139.999756
22 139.999741 -0.000060 -0.000119 1.977732 -17.422924 -11.382831 139.999756
[Rope2_Seg03]
21 140.000107 0.000030 0.000000 -3.376955 -17.657522 -10.652209 140.000107
22 140.000107 0.000030 0.000000 -1.319573 -16.189230 -13.139427 140.000107
[Rope2_Seg04]
21 139.999802 0.000000 -0.000060 -7.395303 -16.296276 -12.370708 139.999802
22 139.999802 0.000000 -0.000060 -4.738897 -18.036770 -10.711738 139.999802
[Rope2_Seg05]
21 139.999985 -0.000060 0.000119 -11.996978 -17.853476 -12.139518 139.999985
22 139.999985 -0.000060 0.000119 -9.244971 -19.332436 -8.610037 139.999985
[Rope2_Seg06]
21 139.999893 -0.000030 -0.000119 -12.025214 -10.600501 -10.404605 139.999893
22 139.999893 -0.000030 -0.000119 -7.380099 -8.016651 -5.892595 139.999893
[Rope2_Seg07]
21 139.999893 0.000060 -0.000060 -7.049396 -3.725699 -6.435636 139.999893
22 139.999893 0.000060 -0.000060 -4.820046 -3.789617 -3.806729 139.999893
[Rope2_Seg09]
21 121.338966 0.000089 -0.000060 33.793236 -1.359788 -0.847141 121.338966
22 121.338966 0.000089 -0.000060 33.793236 -1.359788 -0.847141 121.338966
[R_mid_hand01]
21 104.680779 11.144459 -10.335981 -44.664528 18.070995 20.156975 105.778534
22 104.680779 11.144459 -10.335981 -44.355274 18.974573 21.124483 105.778534
[R_mid_hand02]
21 104.070427 2.443552 8.231699 74.434563 -22.435429 6.604714 104.424065
22 104.070427 2.443552 8.231699 74.289070 -23.678041 6.979428 104.424065
[R_mid_hand03]
21 106.028137 -11.221827 -5.996406 -166.228409 7.848495 -26.405989 106.788818
22 106.028137 -11.221827 -5.996406 -166.402725 8.152507 -27.673399 106.788818
[spine02]
21 129.756927 0.001550 0.000119 -0.245322 -4.052060 -4.355547 129.756927
22 129.756927 0.001550 0.000119 -0.245322 -4.052059 -4.355546 129.756927
[spine03]
21 78.613861 0.087311 -4.898950 0.369659 4.260734 -4.885720 78.766403
22 78.613869 0.087305 -4.898957 0.369659 4.260734 -4.885720 78.766411
[pelvis]
21 169.435242 0.051022 0.000000 -0.010007 -0.191417 -1.897554 169.435257
22 169.435242 0.051022 0.000000 -0.010007 -0.191417 -1.897554 169.435257
[null_rope03_connect]
21 -1.257226 -2.466202 137.391083 -129.551208 -62.371361 -106.284225 137.418976
22 -1.257226 -2.466202 137.391083 -118.030396 -66.211243 -121.603088 137.418976
[null_rope04_connect]
21 -1.259640 -2.480268 -137.844437 -129.551208 -62.371361 -106.284225 137.872513
22 -1.259640 -2.480268 -137.844437 -118.030396 -66.211243 -121.603088 137.872513
[Rope3_Seg01]
21 0.000240 0.000000 0.000031 -162.460953 -37.068352 -32.398125 0.000242
22 0.000253 0.000000 0.000024 -157.091309 -41.341087 -43.810879 0.000254
[Rope3_Seg02]
21 139.999924 -0.000119 0.000060 10.211692 -12.464031 -8.033189 139.999924
22 139.999924 -0.000119 0.000060 5.321173 -12.227933 -13.051595 139.999924
[Rope3_Seg03]
21 139.999924 -0.000119 0.000119 78.047920 -29.749596 -14.152881 139.999924
22 139.999924 -0.000119 0.000119 104.967804 -26.550056 -29.349384 139.999924
[Rope3_Seg04]
21 139.999924 0.000119 0.000000 41.909615 -21.190840 28.597567 139.999924
22 139.999924 0.000119 0.000000 50.988815 -19.636158 31.250854 139.999924
[Rope3_Seg05]
21 139.999924 -0.000238 0.000060 7.835737 4.582778 27.816044 139.999924
22 139.999924 -0.000238 0.000060 3.594091 13.954076 23.772762 139.999924
[Rope3_Seg06]
21 139.999893 -0.000119 -0.000060 1.954944 4.408377 14.749380 139.999893
22 139.999893 -0.000119 -0.000060 0.993034 6.110064 9.704405 139.999893
[Rope3_Seg07]
21 139.999771 0.000060 -0.000119 0.682611 1.975922 6.159943 139.999771
22 139.999771 0.000060 -0.000119 0.650832 2.678954 4.470397 139.999771
[Rope3_Seg08]
21 139.999985 -0.000060 0.000000 0.521839 1.075449 3.231746 139.999985
22 139.999985 -0.000060 0.000000 0.576594 1.468739 2.398215 139.999985
[Rope3_Seg09]
21 90.185997 -0.000179 -0.000060 89.793228 -1.359877 -0.847183 90.185997
22 90.185997 -0.000179 -0.000060 89.793228 -1.359877 -0.847183 90.185997
[R_rear_hand01]
21 103.366196 -6.073594 -10.757982 -159.090073 13.386786 -20.616554 104.101845
22 103.366196 -6.073594 -10.757982 -159.598709 14.167138 -22.751802 104.101845
[R_rear_hand02]
21 100.509819 12.039542 -7.992327 -36.626534 13.642225 20.623665 101.543350
22 100.509819 12.039542 -7.992327 -36.171692 14.961147 22.465162 101.543350
[R_rear_hand03]
21 101.539970 5.215704 5.435467 83.895897 -21.276398 6.086509 101.819031
22 101.539970 5.215704 5.435467 83.795952 -23.482494 6.345252 101.819031
[Rope4_Seg01]
21 -0.000011 -0.000015 -0.000153 80.213333 -57.003109 -132.932022 0.000154
22 -0.000011 -0.000012 -0.000153 78.354576 -48.162773 -136.833817 0.000153
[Rope4_Seg02]
21 139.999985 0.000060 0.000119 11.961210 -10.970679 25.032135 139.999985
22 139.999985 0.000060 0.000119 16.861357 -15.871772 25.619812 139.999985
[Rope4_Seg03]
21 139.999924 0.000000 -0.000238 8.736837 -10.819999 56.253216 139.999924
22 139.999924 0.000000 -0.000238 14.867010 -12.969900 56.689827 139.999924
[Rope4_Seg04]
21 139.999985 0.000000 0.000119 -0.882592 1.989854 24.479944 139.999985
22 139.999985 0.000000 0.000119 1.267538 4.088190 22.319426 139.999985
[Rope4_Seg05]
21 139.999802 -0.000060 -0.000119 -1.297267 5.780126 10.792998 139.999802
22 139.999802 -0.000060 -0.000119 -0.779731 6.806487 12.032058 139.999802
[Rope4_Seg06]
21 139.999924 0.000000 0.000060 -1.818839 4.670227 7.909064 139.999924
22 139.999924 0.000000 0.000060 -1.762069 4.950758 8.801414 139.999924
[Rope4_Seg07]
21 139.999802 0.000000 0.000000 -1.930517 1.869954 5.087098 139.999802
22 139.999802 0.000000 0.000000 -1.796350 2.205556 5.381348 139.999802
[Rope4_Seg08]
21 139.999924 0.000000 0.000119 -2.925044 1.015909 3.088078 139.999924
22 139.999924 0.000000 0.000119 -2.854301 1.200877 3.237532 139.999924
[Rope4_Seg09]
21 90.185791 0.000060 0.000060 -135.617828 2.228885 0.850567 90.185791
22 90.185791 0.000060 0.000060 -135.617828 2.228885 0.850567 90.185791
[L_rear_hand01]
21 101.696655 -8.392275 -7.654577 -37.097984 -12.101351 161.488007 102.329041
22 101.696655 -8.392275 -7.654577 -36.675041 -13.498219 159.575958 102.329041
[L_rear_hand02]
21 102.726799 -1.568258 5.773216 83.993034 18.721008 174.203247 102.900848
22 102.726799 -1.568258 5.773216 83.906593 21.035519 173.944992 102.900848
[L_rear_hand03]
21 104.552910 9.721220 -10.420293 -158.537842 -12.454073 -161.844238 105.519653
22 104.552910 9.721220 -10.420293 -159.035812 -13.298707 -159.616318 105.519653
